<mxfile host="app.diagrams.net" modified="2023-08-05T11:18:33.158Z" agent="Mozilla/5.0 (X11; Linux x86_64) AppleWebKit/537.36 (KHTML, like Gecko) Chrome/114.0.0.0 Safari/537.36" version="21.6.6" etag="PhBlGHNTZyhbdOnsPK29" type="github">
  <diagram name="Page-1" id="BKp44_yrLfxvweCXmcPK">
    <mxGraphModel>
      <root>
        <mxCell id="0" />
        <mxCell id="1" parent="0" />
      </root>
    </mxGraphModel>
  </diagram>
</mxfile>
